<?xml version="1.0" encoding="utf-8"?>
<!-- Generator: Adobe Illustrator 17.0.0, SVG Export Plug-In . SVG Version: 6.00 Build 0)  -->
<!DOCTYPE svg PUBLIC "-//W3C//DTD SVG 1.1//EN" "http://www.w3.org/Graphics/SVG/1.1/DTD/svg11.dtd">
<svg version="1.1" id="Layer_1" xmlns="http://www.w3.org/2000/svg" xmlns:xlink="http://www.w3.org/1999/xlink" x="0px" y="0px"
	 width="1024px" height="1024px" viewBox="0 0 1024 1024" enable-background="new 0 0 1024 1024" xml:space="preserve">
<g>
	<ellipse fill="#DA8947" cx="433.993" cy="928.2" rx="8.957" ry="9.476"/>
	<path fill="#FFFFFF" d="M905.142,531.187l-1.02,2.535c0.019-7.979-0.078-16.037-0.337-23.933c0,0-17.22-98.565-24.996-109.119
		c-7.777-10.554-37.7-104.984-56.9-116.649c0,0-34.753-72.212-159.18-131.648l-127.204-33.884c0,0-40.55-19.997-87.765-5.555
		l-124.587,39.438c0,0-58.785,17.369-93.747,49.789l-52.181,49.641l-41.661,51.104l-20.856,33.255l-21.915,32.847
		c0,0-30.551,46.071-31.107,82.472l3.333,125.831l10.554,60.547c0,0,17.813,60.994,32.686,94.123l-0.186-0.095
		c0.622,1.432,1.241,2.825,1.853,4.164c0,0,46.104,73.878,96.097,113.872c0,0,40.619,38.542,115.296,80.929
		c0,0,40.793,32.388,100.228,30.722l80.844,2.777l16.85-5.555l36.175-8.888l72.767-14.998c0,0,64.991-10.013,97.764-44.723
		s0-2.492,0-2.492l32.773-32.218l58.88-65.184l34.439-52.039l23.816-41.642c0,0,22.844-29.021,25.621-75.891
		C901.476,620.72,905.331,576.388,905.142,531.187z M159.011,696.832c-10.728,0-19.424-8.58-19.424-19.164
		s8.696-19.164,19.424-19.164s19.424,8.58,19.424,19.164S169.739,696.832,159.011,696.832z M220.483,482.552
		c-13.215,0-23.928-10.57-23.928-23.608s10.713-23.608,23.928-23.608c13.215,0,23.928,10.57,23.928,23.608
		S233.698,482.552,220.483,482.552z M294.337,708.819c-15.288,0-27.681-12.228-27.681-27.311c0-15.083,12.393-27.311,27.681-27.311
		s27.681,12.228,27.681,27.311C322.018,696.591,309.625,708.819,294.337,708.819z M378.353,285.872
		c25.335,0,45.873,20.263,45.873,45.259s-20.538,45.259-45.873,45.259s-45.873-20.263-45.873-45.259
		S353.018,285.872,378.353,285.872z M378.353,887.535c-20.835,0-37.726-16.664-37.726-37.221s16.891-37.221,37.726-37.221
		c20.836,0,37.726,16.664,37.726,37.221S399.188,887.535,378.353,887.535z M437.603,582.285c-25.335,0-45.873-20.263-45.873-45.259
		s20.538-45.259,45.873-45.259s45.873,20.263,45.873,45.259S462.938,582.285,437.603,582.285z M521.156,223.334
		c-15.288,0-27.681-12.228-27.681-27.311s12.393-27.311,27.681-27.311s27.681,12.228,27.681,27.311S536.444,223.334,521.156,223.334
		z M592.812,564.58c15.288,0,27.681,12.228,27.681,27.311s-12.393,27.311-27.681,27.311s-27.681-12.228-27.681-27.311
		S577.524,564.58,592.812,564.58z M603.135,862.084c-20.836,0-37.726-16.664-37.726-37.221c0-20.557,16.891-37.221,37.726-37.221
		s37.726,16.664,37.726,37.221C640.861,845.42,623.971,862.084,603.135,862.084z M648.175,371.831
		c-15.288,0-27.681-12.228-27.681-27.311c0-15.083,12.393-27.311,27.681-27.311s27.681,12.228,27.681,27.311
		C675.856,359.603,663.463,371.831,648.175,371.831z M707.078,572.81c0-24.996,20.538-45.259,45.873-45.259
		s45.873,20.263,45.873,45.259s-20.538,45.259-45.873,45.259S707.078,597.806,707.078,572.81z M776.489,782.142
		c-15.288,0-27.681-12.228-27.681-27.311c0-15.083,12.393-27.311,27.681-27.311s27.681,12.228,27.681,27.311
		C804.17,769.914,791.777,782.142,776.489,782.142z"/>
</g>
</svg>
