<?xml version="1.0" encoding="utf-8"?>
<!-- Generator: Adobe Illustrator 17.0.0, SVG Export Plug-In . SVG Version: 6.00 Build 0)  -->
<!DOCTYPE svg PUBLIC "-//W3C//DTD SVG 1.1//EN" "http://www.w3.org/Graphics/SVG/1.1/DTD/svg11.dtd">
<svg version="1.1" id="Layer_1" xmlns="http://www.w3.org/2000/svg" xmlns:xlink="http://www.w3.org/1999/xlink" x="0px" y="0px"
	 width="1024px" height="1024px" viewBox="0 0 1024 1024" enable-background="new 0 0 1024 1024" xml:space="preserve">
<g>
	<path fill="#FFAE6C" d="M323.153,152.372c0,0-58.785,17.369-93.747,49.789l-52.181,49.641l-41.661,51.104l-20.856,33.255
		l-21.915,32.847c0,0-30.551,46.071-31.107,82.472l3.333,125.831l10.554,60.547c0,0,18.331,62.769,33.328,95.542
		c0,0,46.104,73.878,96.097,113.872c0,0,40.619,38.542,115.296,80.929c0,0,40.793,32.388,100.229,30.722l80.844,2.777l16.85-5.555
		l36.175-8.888l72.767-14.998c0,0,64.991-10.013,97.764-44.723s0-2.492,0-2.492l32.773-32.218l58.88-65.184l34.439-52.039
		l23.816-41.642c0,0,22.844-29.021,25.621-75.891c0,0,4.999-57.487,3.333-108.281c0,0-17.22-98.565-24.996-109.119
		c-7.777-10.554-37.7-104.984-56.9-116.649c0,0-34.753-72.212-159.18-131.648l-127.204-33.884c0,0-40.55-19.997-87.765-5.555
		L323.153,152.372z"/>
	<path fill="#FE9850" d="M875.855,604.017c0,0-82.37,131.164-98.342,153.464c-15.972,22.299-117.992,83.714-117.992,83.714
		l-61.702,11.77c-43.55,19.332-180.716,33.618-180.716,33.618s-62.213-25.552-115.539-25.252c-1.97,0.011-4.041-0.147-6.204-0.461
		c-56.386-8.187-174.88-122.617-174.88-122.617l-12.407-6.367c0.622,1.432,1.241,2.825,1.853,4.164
		c0,0,46.104,73.878,96.097,113.872c0,0,40.619,38.542,115.296,80.929c0,0,40.793,32.388,100.228,30.722l80.844,2.777l16.85-5.555
		l36.175-8.888l72.767-14.998c0,0,64.991-10.013,97.764-44.723s0-2.492,0-2.492l32.773-32.218l58.88-65.184l34.439-52.039
		l23.816-41.642c0,0,22.844-29.021,25.621-75.891c0,0,3.855-44.332,3.666-89.533L875.855,604.017z"/>
	<path fill="#FB9956" d="M923.783,295.129l-29.44-9.999l57.214-217.746c0,0,13.887,17.775,11.665,84.432
		C963.221,151.817,967.665,209.03,923.783,295.129z"/>
	<path fill="#FFAF6A" d="M951.557,67.384c0,0-94.431,69.434-98.319,206.081l41.105,11.665
		C894.343,285.13,967.665,118.488,951.557,67.384z"/>
	<path fill="#361A00" d="M862.727,207.475c0,0-52.843-1.592-46.586,81.359c0,0,20.521-19.68,36.565-15.368L862.727,207.475z"/>
	<path fill="#5E2F00" d="M821.946,253.283c0,0-0.741,7.591,3.148,5.184l10.924-3.888c0,0,3.576-1.703,2.889-7.396
		c-0.029-0.243-0.066-0.493-0.112-0.751c-1.111-6.295,3.888-27.033,3.888-27.033s-18.999,8.147-20.794,32.958"/>
	<path fill="#361A00" d="M949.005,233.376c0,0,46.033,25.997-2.268,93.725c0,0-7.367-27.461-23.326-32.08L949.005,233.376z"/>
	<path fill="#5E2F00" d="M960.177,293.681c0,0-3.297,6.878-5.377,2.806l-7.333-8.983c0,0-2.178-3.309,1.357-7.823
		c0.151-0.193,0.312-0.388,0.485-0.585c4.21-4.811,10.67-25.141,10.67-25.141s12.036,16.807,0.726,38.963"/>
	<ellipse fill="#361A00" cx="521.156" cy="196.023" rx="27.681" ry="27.311"/>
	<ellipse fill="#5E2F00" cx="516.504" cy="187.387" rx="14.975" ry="14.774"/>
	<ellipse fill="#361A00" cx="648.175" cy="344.52" rx="27.681" ry="27.311"/>
	<ellipse fill="#5E2F00" cx="643.523" cy="335.884" rx="14.975" ry="14.774"/>
	<ellipse fill="#361A00" cx="592.812" cy="591.891" rx="27.681" ry="27.311"/>
	<ellipse fill="#5E2F00" cx="588.16" cy="583.255" rx="14.975" ry="14.774"/>
	<ellipse fill="#361A00" cx="776.489" cy="754.831" rx="27.681" ry="27.311"/>
	<ellipse fill="#5E2F00" cx="771.837" cy="746.195" rx="14.975" ry="14.774"/>
	<ellipse fill="#361A00" cx="294.337" cy="681.508" rx="27.681" ry="27.311"/>
	<ellipse fill="#5E2F00" cx="289.685" cy="672.872" rx="14.975" ry="14.774"/>
	<ellipse fill="#361A00" cx="159.011" cy="677.668" rx="19.424" ry="19.164"/>
	<ellipse fill="#5E2F00" cx="155.746" cy="671.609" rx="10.508" ry="10.367"/>
	<ellipse fill="#361A00" cx="220.483" cy="458.944" rx="23.928" ry="23.608"/>
	<ellipse fill="#5E2F00" cx="216.462" cy="451.479" rx="12.944" ry="12.771"/>
	<ellipse fill="#361A00" cx="603.135" cy="824.863" rx="37.726" ry="37.221"/>
	<ellipse fill="#5E2F00" cx="596.795" cy="813.093" rx="20.409" ry="20.136"/>
	<ellipse fill="#361A00" cx="378.353" cy="850.314" rx="37.726" ry="37.221"/>
	<ellipse fill="#5E2F00" cx="372.013" cy="838.544" rx="20.409" ry="20.136"/>
	<ellipse fill="#361A00" cx="437.603" cy="537.026" rx="45.873" ry="45.259"/>
	<ellipse fill="#5E2F00" cx="429.894" cy="522.715" rx="24.816" ry="24.484"/>
	<ellipse fill="#361A00" cx="378.353" cy="331.131" rx="45.873" ry="45.259"/>
	<ellipse fill="#5E2F00" cx="370.643" cy="316.819" rx="24.816" ry="24.484"/>
	<ellipse fill="#361A00" cx="752.951" cy="572.81" rx="45.873" ry="45.259"/>
	<ellipse fill="#5E2F00" cx="745.242" cy="558.499" rx="24.816" ry="24.484"/>
	<ellipse fill="#DA8947" cx="572.931" cy="211.081" rx="14.234" ry="15.058"/>
	<ellipse fill="#DA8947" cx="338.787" cy="509.788" rx="15.634" ry="16.54"/>
	<ellipse fill="#DA8947" cx="148.074" cy="537.026" rx="15.634" ry="16.54"/>
	<ellipse fill="#DA8947" cx="304.66" cy="827.085" rx="15.634" ry="16.54"/>
	<ellipse fill="#DA8947" cx="485.733" cy="905.592" rx="15.634" ry="16.54"/>
	<ellipse fill="#DA8947" cx="606.954" cy="220.557" rx="8.957" ry="9.476"/>
	<ellipse fill="#DA8947" cx="220.483" cy="326.685" rx="8.957" ry="9.476"/>
	<ellipse fill="#DA8947" cx="592.812" cy="482.551" rx="8.957" ry="9.476"/>
	<ellipse fill="#DA8947" cx="114.708" cy="599.544" rx="8.957" ry="9.476"/>
	<ellipse fill="#DA8947" cx="425.036" cy="712.305" rx="8.957" ry="9.476"/>
	<ellipse fill="#DA8947" cx="433.993" cy="928.2" rx="8.957" ry="9.476"/>
	<ellipse fill="#DA8947" cx="518.217" cy="918.724" rx="8.957" ry="9.476"/>
	<ellipse fill="#DA8947" cx="707.078" cy="754.554" rx="8.957" ry="9.476"/>
	<ellipse fill="#DA8947" cx="874.832" cy="601.367" rx="8.957" ry="9.476"/>
	<ellipse fill="#DA8947" cx="834.282" cy="582.286" rx="8.957" ry="9.476"/>
	<ellipse fill="#DA8947" cx="865.875" cy="551.735" rx="8.957" ry="9.476"/>
	<ellipse fill="#DA8947" cx="461.142" cy="745.078" rx="8.957" ry="9.476"/>
	<ellipse fill="#DA8947" cx="263.67" cy="840.839" rx="8.957" ry="9.476"/>
	<ellipse fill="#DA8947" cx="769.291" cy="363.87" rx="8.957" ry="9.476"/>
	<ellipse fill="#DA8947" cx="614.545" cy="196.023" rx="8.957" ry="9.476"/>
	<path fill="#5E2F00" d="M452.686,805.507c0.838-0.518,1.68-1.038,2.525-1.563l97.645-68.341l61.843-60.158l105.17-106.963
		l92.949-127.447l76.285-147.386l3.789-9.611l-29.665-7.879L799.325,412.89c-18.863,39.994-116.117,169.396-116.117,169.396
		L563.225,708.819c-46.66,45.966-153.311,112.9-153.311,112.9l-115.076,49.437c-7.72,2.652-15.264,4.816-22.578,6.571
		C296.067,878.972,348.603,869.755,452.686,805.507z"/>
	<path fill="#361A00" d="M889.103,293.648l-76.285,147.386l-92.949,127.447l-105.17,106.963l-61.843,60.158l-97.645,68.341
		c-0.845,0.525-1.686,1.046-2.525,1.563c-104.083,64.248-156.618,73.465-180.426,72.22c-58.559,14.05-102.311,1.761-102.311,1.761
		c-56.658-8.332-71.656-61.08-71.656-61.08c-16.664-53.303,4.253-101.357,4.253-101.357l-7.479-20.22
		c-28.222,52.865-16.772,111-16.772,111c3.888,46.104,40.55,70.545,40.55,70.545c70.545,58.325,234.897-0.292,234.897-0.292
		l56.727-23.593C534.34,781.169,586.555,731.42,586.555,731.42l75.545-70.179l107.693-126.545
		c18.261-21.506,69.885-100.143,69.885-100.143l64.377-126.093l6.898-19.627l-18.059-4.796L889.103,293.648z"/>
</g>
</svg>
